<svg width="45" height="45" viewBox="0 0 45 45" fill="none" xmlns="http://www.w3.org/2000/svg">
<path d="M30.1201 15.5918C30.1201 15.3984 29.9619 15.2402 29.7686 15.2402L26.8682 15.2534L22.5 20.4609L18.1362 15.2578L15.2314 15.2446C15.0381 15.2446 14.8799 15.3984 14.8799 15.5962C14.8799 15.6797 14.9106 15.7588 14.9634 15.8247L20.6807 22.6362L14.9634 29.4434C14.9103 29.5078 14.8808 29.5884 14.8799 29.6719C14.8799 29.8652 15.0381 30.0234 15.2314 30.0234L18.1362 30.0103L22.5 24.8027L26.8638 30.0059L29.7642 30.019C29.9575 30.019 30.1157 29.8652 30.1157 29.6675C30.1157 29.584 30.085 29.5049 30.0322 29.439L24.3237 22.6318L30.041 15.8203C30.0938 15.7588 30.1201 15.6753 30.1201 15.5918Z" fill="#1B1B1B"/>
<path d="M22.5 2.85645C11.6279 2.85645 2.8125 11.6719 2.8125 22.5439C2.8125 33.416 11.6279 42.2314 22.5 42.2314C33.3721 42.2314 42.1875 33.416 42.1875 22.5439C42.1875 11.6719 33.3721 2.85645 22.5 2.85645ZM22.5 38.8916C13.4736 38.8916 6.15234 31.5703 6.15234 22.5439C6.15234 13.5176 13.4736 6.19629 22.5 6.19629C31.5264 6.19629 38.8477 13.5176 38.8477 22.5439C38.8477 31.5703 31.5264 38.8916 22.5 38.8916Z" fill="#1B1B1B"/>
</svg>
