<svg width="23" height="25" viewBox="0 0 23 25" fill="none" xmlns="http://www.w3.org/2000/svg">
<path d="M1.96223 10.0159C2.01005 9.43953 2.28054 8.90172 2.71982 8.50959C3.15911 8.11746 3.73497 7.89978 4.3327 7.8999H18.6673C19.265 7.89978 19.8409 8.11746 20.2802 8.50959C20.7195 8.90172 20.99 9.43953 21.0378 10.0159L21.9924 21.5159C22.0186 21.8324 21.9769 22.1507 21.8697 22.4508C21.7626 22.7509 21.5924 23.0263 21.3698 23.2596C21.1472 23.4929 20.8772 23.6792 20.5765 23.8066C20.2759 23.934 19.9513 23.9998 19.6231 23.9999H3.37691C3.0487 23.9998 2.72408 23.934 2.42346 23.8066C2.12285 23.6792 1.85275 23.4929 1.63019 23.2596C1.40763 23.0263 1.23742 22.7509 1.13027 22.4508C1.02312 22.1507 0.981365 21.8324 1.00762 21.5159L1.96223 10.0159V10.0159Z" stroke="#2C2C2C" stroke-width="2" stroke-linecap="round" stroke-linejoin="round"/>
<path d="M16.2552 11.35V5.6C16.2552 4.38001 15.7542 3.20998 14.8624 2.34731C13.9706 1.48464 12.7611 1 11.5 1C10.2388 1 9.0293 1.48464 8.13752 2.34731C7.24575 3.20998 6.74475 4.38001 6.74475 5.6V11.35" stroke="#2C2C2C" stroke-width="2" stroke-linecap="round" stroke-linejoin="round"/>
</svg>
