<svg width="99" height="99" viewBox="0 0 99 99" fill="none" xmlns="http://www.w3.org/2000/svg">
<path d="M49.5 6.1875C25.5814 6.1875 6.1875 25.5814 6.1875 49.5C6.1875 73.4186 25.5814 92.8125 49.5 92.8125C73.4186 92.8125 92.8125 73.4186 92.8125 49.5C92.8125 25.5814 73.4186 6.1875 49.5 6.1875ZM49.5 85.4648C29.642 85.4648 13.5352 69.358 13.5352 49.5C13.5352 29.642 29.642 13.5352 49.5 13.5352C69.358 13.5352 85.4648 29.642 85.4648 49.5C85.4648 69.358 69.358 85.4648 49.5 85.4648Z" fill="white"/>
<path d="M69.5514 48.2527L40.9245 27.4666C40.6949 27.2983 40.4231 27.1971 40.1394 27.1742C39.8556 27.1513 39.5711 27.2076 39.3175 27.3369C39.0638 27.4662 38.8511 27.6634 38.703 27.9065C38.5549 28.1496 38.4772 28.4291 38.4785 28.7138V70.286C38.4785 71.5526 39.9094 72.268 40.9245 71.5332L69.5514 50.7471C69.749 50.6047 69.91 50.4173 70.021 50.2005C70.132 49.9836 70.1899 49.7435 70.1899 49.4999C70.1899 49.2563 70.132 49.0162 70.021 48.7993C69.91 48.5825 69.749 48.3952 69.5514 48.2527V48.2527ZM44.6467 61.2078V37.792L60.7632 49.4999L44.6467 61.2078V61.2078Z" fill="white"/>
</svg>
